<?xml version="1.0" encoding="UTF-8"?>
<svg id="_Слой_2" data-name="Слой 2" xmlns="http://www.w3.org/2000/svg" xmlns:xlink="http://www.w3.org/1999/xlink" viewBox="0 0 128 128">
  <defs>
    <style>
      .cls-1 {
        fill: url(#_Безымянный_градиент_7);
      }

      .cls-2 {
        fill: #55bdd0;
      }

      .cls-3 {
        fill: none;
      }
    </style>
    <linearGradient id="_Безымянный_градиент_7" data-name="Безымянный градиент 7" x1="57.81" y1="115.56" x2="57.81" y2="22.76" gradientUnits="userSpaceOnUse">
      <stop offset="0" stop-color="#1d70b5"/>
      <stop offset="1" stop-color="#34beed"/>
    </linearGradient>
  </defs>
  <g id="_Слой_1-2" data-name="Слой 1">
    <rect class="cls-3" width="128" height="128"/>
    <g>
      <path class="cls-1" d="M102.63,38.68L57.83,12.36,16.09,36.64v54.82l41.5,23.99,46.5-26.74v5.3s-38.87,22.44-46.31,26.77c-10.21-5.94-39.2-22.68-46.26-26.72,.01-19.29,.03-38.96,0-60.13,14.85-8.54,30.01-17.29,46.25-26.69,12.03,6.96,40.99,23.68,46.34,26.74-.04,2.75-.04,5.73,0,9.32-10.52,6.05-41.08,23.62-46.35,26.75l-24.83-14.33c.03-1.43,.06-5.17,.06-5.17l24.86,14.27,44.79-26.13Z"/>
      <path class="cls-2" d="M116.47,55.88c0,1.79,0,3.63,.01,5.48-13.3,7.66-58.25,33.89-58.25,33.89-.31,.18-.45,.24-.45,.25-.04-.01-.18-.06-.46-.24-8.45-5.02-17.24-10.03-24.48-14.17,.04-1.84,.04-3.69,.03-5.49l.22,.12c7.03,4.05,23.83,13.79,23.83,13.79l.97,.55,.93-.61s57.66-33.57,57.66-33.57Z"/>
    </g>
  </g>
</svg>