<?xml version="1.0" encoding="UTF-8"?>
<svg id="_Слой_2" data-name="Слой 2" xmlns="http://www.w3.org/2000/svg" xmlns:xlink="http://www.w3.org/1999/xlink" viewBox="0 0 903.02 309.34">
  <defs>
    <style>
      .cls-1 {
        fill: url(#_Безымянный_градиент_7);
      }

      .cls-2 {
        fill: #55bdd0;
      }
    </style>
    <linearGradient id="_Безымянный_градиент_7" data-name="Безымянный градиент 7" x1="126.12" y1="295.13" x2="126.12" y2="42.32" gradientUnits="userSpaceOnUse">
      <stop offset="0" stop-color="#1d70b5"/>
      <stop offset="1" stop-color="#34beed"/>
    </linearGradient>
  </defs>
  <g id="_Слой_1-2" data-name="Слой 1">
    <g>
      <path d="M373.96,150.56l-20.39,33.23h-14.91L418.32,51.64h16.8l79.67,132.15h-14.91l-20.39-33.23h-105.53Zm98.36-11.89l-45.5-74-45.5,74h91Z"/>
      <path d="M627.66,51.64c41.91,0,58.71,18.12,58.71,46.63,0,21.52-9.63,37-32.28,43.42l34.17,42.1h-15.29l-32.1-39.65c-4.15,.38-8.49,.57-13.21,.57h-73.81v39.08h-13.97V51.64h87.78Zm0,81.36c32.1,0,44.93-13.59,44.93-34.74s-12.84-34.73-44.93-34.73h-73.81v69.47h73.81Z"/>
      <path d="M808.31,147.55l81.74-95.9h10.57V183.79h-13.78V72.98l-78.53,92.5-78.34-92.5v110.82h-13.97V51.64h10.76l81.55,95.9Z"/>
    </g>
    <g>
      <path d="M348.77,250.45l-5.43,8.86h-3.98l21.24-35.23h4.48l21.24,35.23h-3.98l-5.43-8.86h-28.14Zm26.22-3.17l-12.13-19.73-12.13,19.73h24.26Z"/>
      <path d="M396.73,259.3h-3.73v-35.23h3.73v35.23Z"/>
      <path d="M452.39,224.07c11.17,0,15.65,4.83,15.65,12.43,0,5.74-2.57,9.86-8.61,11.57l9.11,11.22h-4.07l-8.56-10.57c-1.1,.1-2.26,.15-3.52,.15h-19.68v10.42h-3.73v-35.23h23.4Zm0,21.69c8.56,0,11.98-3.62,11.98-9.26s-3.42-9.26-11.98-9.26h-19.68v18.52h19.68Z"/>
      <path d="M514.14,244.2c0,9.11-5.99,15.7-20.74,15.7s-20.73-6.59-20.73-15.7,5.99-15.7,20.73-15.7,20.74,6.59,20.74,15.7Zm-3.47,0c0-7.15-4.83-12.43-17.27-12.43s-17.26,5.29-17.26,12.43,4.83,12.43,17.26,12.43,17.27-5.28,17.27-12.43Z"/>
      <path d="M563.36,244.2c0,9.11-5.83,15.7-19.78,15.7-9.91,0-15.75-3.37-18.27-8.61v8h-3.48v-40.27h3.48v18.07c2.51-5.23,8.35-8.61,18.27-8.61,13.94,0,19.78,6.59,19.78,15.7Zm-3.47,0c0-7.15-4.83-12.43-17.26-12.43s-17.31,5.29-17.31,12.43,4.88,12.43,17.31,12.43,17.26-5.28,17.26-12.43Z"/>
      <path d="M610.77,244.2c0,9.11-5.99,15.7-20.74,15.7s-20.73-6.59-20.73-15.7,5.99-15.7,20.73-15.7,20.74,6.59,20.74,15.7Zm-3.47,0c0-7.15-4.83-12.43-17.27-12.43s-17.26,5.29-17.26,12.43,4.83,12.43,17.26,12.43,17.27-5.28,17.27-12.43Z"/>
      <path d="M665.37,249.64l21.79-25.57h2.82v35.23h-3.67v-29.54l-20.94,24.66-20.88-24.66v29.54h-3.73v-35.23h2.87l21.74,25.57Z"/>
      <path d="M736.24,237.11v-8h3.47v30.2h-3.47v-8c-2.52,5.23-8.3,8.61-18.27,8.61-13.89,0-19.73-6.59-19.73-15.7s5.84-15.7,19.73-15.7c9.97,0,15.75,3.37,18.27,8.61Zm0,7.09c0-7.15-4.83-12.43-17.27-12.43s-17.26,5.29-17.26,12.43,4.83,12.43,17.26,12.43,17.27-5.28,17.27-12.43Z"/>
      <path d="M784.45,229.1h4.18l-14.64,15.1,14.64,15.1h-4.18l-13.19-13.54h-18.57v13.54h-3.48v-40.27h3.48v23.56h18.57l13.19-13.49Z"/>
      <path d="M830.85,244.2c0,.41,0,.86-.05,1.21h-37.85c.35,6.74,5.39,11.67,17.16,11.67,8.96,0,13.99-2.82,16.06-7.15h3.73c-2.22,6.04-8.41,9.97-19.78,9.97-14.74,0-20.73-6.59-20.73-15.7s5.99-15.75,20.73-15.75,20.74,6.64,20.74,15.75Zm-37.9-1.26h34.33c-.35-6.7-5.34-11.63-17.17-11.63s-16.81,4.93-17.16,11.63Z"/>
      <path d="M842.02,259.3h-3.48v-30.2h3.48v10.27c2.06-6.19,7.7-10.87,18.42-10.87v3.37c-13.13,0-18.42,6.95-18.42,14.79v12.63Z"/>
      <path d="M903.02,251.4c0,5.03-3.62,8.5-19.23,8.5s-19.22-3.98-19.22-9.87h3.47c0,4.23,2.57,7.15,15.75,7.15s15.76-2.47,15.76-5.84-1.61-5.84-15.76-5.84c-16.36,0-18.72-3.52-18.72-8.56s3.57-8.46,18.72-8.46,18.72,4.03,18.72,9.86h-3.47c0-4.23-2.47-7.15-15.25-7.15s-15.25,2.47-15.25,5.79,1.56,5.79,15.25,5.79c16.86,0,19.23,3.52,19.23,8.61Z"/>
    </g>
    <path class="cls-1" d="M248.21,85.69L126.16,13.99,12.45,80.12V229.46l113.06,65.36,126.69-72.84,.04,14.44s-105.95,61.13-126.2,72.92C98.22,293.15,19.24,247.56,0,236.54c.04-52.55,.08-106.15,0-163.82C40.47,49.46,81.75,25.62,126,0c32.78,18.95,111.68,64.5,126.24,72.84-.12,7.48-.12,15.62,0,25.38-28.67,16.47-111.93,64.34-126.28,72.88l-67.64-39.04c.08-3.9,.16-14.07,.16-14.07l67.72,38.88,122.01-71.17Z"/>
    <path class="cls-2" d="M285.91,132.55c0,4.88,0,9.88,.04,14.93-36.24,20.86-158.7,92.32-158.7,92.32-.85,.49-1.22,.65-1.22,.69-.12-.04-.49-.16-1.26-.65-23.02-13.67-46.97-27.33-66.7-38.6,.12-5,.12-10.05,.08-14.97l.61,.33c19.16,11.02,64.91,37.58,64.91,37.58l2.64,1.5,2.52-1.67c.08-.04,157.07-91.47,157.07-91.47Z"/>
  </g>
</svg>