<?xml version="1.0" encoding="UTF-8"?>
<svg id="_Слой_2" data-name="Слой 2" xmlns="http://www.w3.org/2000/svg" xmlns:xlink="http://www.w3.org/1999/xlink" viewBox="0 0 4835.71 2128.7">
  <defs>
    <style>
      .cls-1 {
        fill: url(#_Безымянный_градиент_7);
      }

      .cls-2 {
        fill: url(#_Безымянный_градиент_7-4);
      }

      .cls-3 {
        fill: url(#_Безымянный_градиент_7-5);
      }

      .cls-4 {
        fill: url(#_Безымянный_градиент_7-3);
      }

      .cls-5 {
        fill: url(#_Новый_образец_узора_1);
      }

      .cls-6 {
        fill: #7dbbcd;
      }

      .cls-7 {
        fill: none;
      }

      .cls-8 {
        fill: url(#_Безымянный_градиент_7-2);
      }
    </style>
    <linearGradient id="_Безымянный_градиент_7" data-name="Безымянный градиент 7" x1="-188.15" y1="-15595.05" x2="-188.15" y2="-15531.59" gradientTransform="translate(403.92 -15345.6) scale(1 -1)" gradientUnits="userSpaceOnUse">
      <stop offset="0" stop-color="#446fb0"/>
      <stop offset="1" stop-color="#72bcea"/>
    </linearGradient>
    <linearGradient id="_Безымянный_градиент_7-2" data-name="Безымянный градиент 7" x1="-408.15" x2="-408.15" xlink:href="#_Безымянный_градиент_7"/>
    <linearGradient id="_Безымянный_градиент_7-3" data-name="Безымянный градиент 7" x1="-298.15" y1="-15487.95" x2="-298.15" y2="-15424.5" xlink:href="#_Безымянный_градиент_7"/>
    <linearGradient id="_Безымянный_градиент_7-4" data-name="Безымянный градиент 7" y1="-15380.86" y2="-15317.4" xlink:href="#_Безымянный_градиент_7"/>
    <linearGradient id="_Безымянный_градиент_7-5" data-name="Безымянный градиент 7" x1="-408.15" y1="-15380.86" x2="-408.15" y2="-15317.4" xlink:href="#_Безымянный_градиент_7"/>
    <pattern id="_Новый_образец_узора_1" data-name="Новый образец узора 1" x="0" y="0" width="220" height="214.19" patternTransform="translate(4011.9 2404.56)" patternUnits="userSpaceOnUse" viewBox="0 0 220 214.19">
      <g>
        <rect class="cls-7" width="220" height="214.19"/>
        <g>
          <path class="cls-1" d="M246.41,196.88l-30.64-18-28.54,16.6v37.49l28.38,16.41,31.8-18.28v3.62s-26.58,15.34-31.67,18.3c-6.98-4.06-26.81-15.51-31.64-18.27,.01-13.19,.02-26.64,0-41.12,10.16-5.84,20.52-11.82,31.63-18.25,8.23,4.76,28.03,16.19,31.69,18.28-.03,1.88-.03,3.92,0,6.37-7.2,4.13-28.09,16.15-31.7,18.29l-16.98-9.8c.02-.98,.04-3.53,.04-3.53l17,9.76,30.63-17.87Z"/>
          <path class="cls-6" d="M255.88,208.64c0,1.22,0,2.48,.01,3.75-9.1,5.24-39.83,23.17-39.83,23.17-.21,.12-.31,.16-.31,.17-.03-.01-.12-.04-.32-.16-5.78-3.43-11.79-6.86-16.74-9.69,.03-1.26,.03-2.52,.02-3.76l.15,.08c4.81,2.77,16.29,9.43,16.29,9.43l.66,.38,.63-.42s39.43-22.96,39.43-22.96Z"/>
        </g>
        <g>
          <path class="cls-8" d="M26.41,196.88l-30.64-18-28.54,16.6v37.49l28.38,16.41,31.8-18.28v3.62S.83,250.06-4.25,253.02c-6.98-4.06-26.81-15.51-31.64-18.27,.01-13.19,.02-26.64,0-41.12,10.16-5.84,20.52-11.82,31.63-18.25,8.23,4.76,28.03,16.19,31.69,18.28-.03,1.88-.03,3.92,0,6.37-7.2,4.13-28.09,16.15-31.7,18.29l-16.98-9.8c.02-.98,.04-3.53,.04-3.53l17,9.76,30.63-17.87Z"/>
          <path class="cls-6" d="M35.88,208.64c0,1.22,0,2.48,.01,3.75-9.1,5.24-39.83,23.17-39.83,23.17-.21,.12-.31,.16-.31,.17-.03-.01-.12-.04-.32-.16-5.78-3.43-11.79-6.86-16.74-9.69,.03-1.26,.03-2.52,.02-3.76l.15,.08c4.81,2.77,16.29,9.43,16.29,9.43l.66,.38,.63-.42s39.43-22.96,39.43-22.96Z"/>
        </g>
        <g>
          <path class="cls-4" d="M136.41,89.78l-30.64-18-28.54,16.6v37.49l28.38,16.41,31.8-18.28v3.62s-26.58,15.34-31.67,18.3c-6.98-4.06-26.81-15.51-31.64-18.27,.01-13.19,.02-26.64,0-41.12,10.16-5.84,20.52-11.82,31.63-18.25,8.23,4.76,28.03,16.19,31.69,18.28-.03,1.88-.03,3.92,0,6.37-7.2,4.13-28.09,16.15-31.7,18.29l-16.98-9.8c.02-.98,.04-3.53,.04-3.53l17,9.76,30.63-17.87Z"/>
          <path class="cls-6" d="M145.88,101.55c0,1.22,0,2.48,.01,3.75-9.1,5.24-39.83,23.17-39.83,23.17-.21,.12-.31,.16-.31,.17-.03-.01-.12-.04-.32-.16-5.78-3.43-11.79-6.86-16.74-9.69,.03-1.26,.03-2.52,.02-3.76l.15,.08c4.81,2.77,16.29,9.43,16.29,9.43l.66,.38,.63-.42s39.43-22.96,39.43-22.96Z"/>
        </g>
        <g>
          <path class="cls-2" d="M246.41-17.31l-30.64-18-28.54,16.6V18.78l28.38,16.41,31.8-18.28v3.62s-26.58,15.34-31.67,18.3c-6.98-4.06-26.81-15.51-31.64-18.27,.01-13.19,.02-26.64,0-41.12,10.16-5.84,20.52-11.82,31.63-18.25,8.23,4.76,28.03,16.19,31.69,18.28-.03,1.88-.03,3.92,0,6.37-7.2,4.13-28.09,16.15-31.7,18.29l-16.98-9.8c.02-.98,.04-3.53,.04-3.53L215.79,.55l30.63-17.87Z"/>
          <path class="cls-6" d="M255.88-5.55c0,1.22,0,2.48,.01,3.75-9.1,5.24-39.83,23.17-39.83,23.17-.21,.12-.31,.16-.31,.17-.03-.01-.12-.04-.32-.16-5.78-3.43-11.79-6.86-16.74-9.69,.03-1.26,.03-2.52,.02-3.76l.15,.08c4.81,2.77,16.29,9.43,16.29,9.43l.66,.38,.63-.42S255.88-5.55,255.88-5.55Z"/>
        </g>
        <g>
          <path class="cls-3" d="M26.41-17.31L-4.22-35.31l-28.54,16.6V18.78L-4.38,35.18,27.42,16.9v3.62S.83,35.87-4.25,38.83c-6.98-4.06-26.81-15.51-31.64-18.27,.01-13.19,.02-26.64,0-41.12,10.16-5.84,20.52-11.82,31.63-18.25,8.23,4.76,28.03,16.19,31.69,18.28-.03,1.88-.03,3.92,0,6.37C20.23-10.03-.67,1.98-4.27,4.13L-21.25-5.67c.02-.98,.04-3.53,.04-3.53L-4.21,.55,26.41-17.31Z"/>
          <path class="cls-6" d="M35.88-5.55c0,1.22,0,2.48,.01,3.75C26.79,3.43-3.95,21.37-3.95,21.37c-.21,.12-.31,.16-.31,.17-.03-.01-.12-.04-.32-.16-5.78-3.43-11.79-6.86-16.74-9.69,.03-1.26,.03-2.52,.02-3.76l.15,.08c4.81,2.77,16.29,9.43,16.29,9.43l.66,.38,.63-.42S35.88-5.55,35.88-5.55Z"/>
        </g>
      </g>
    </pattern>
  </defs>
  <g id="_Слой_1-2" data-name="Слой 1">
    <rect class="cls-5" width="4835.71" height="2128.7"/>
  </g>
</svg>